<svg xmlns="http://www.w3.org/2000/svg" width="210mm" height="297mm" viewBox="0 0 794 1123">
  <style>@import url('https://cdn.jsdelivr.net/gh/orioncactus/pretendard@v1.3.9/dist/web/static/pretendard.css');</style>
  <rect width="794" height="1123" fill="#f7f9fc"/>
  <rect x="26" y="26" width="742" height="1071" rx="28" fill="#ffffff" stroke="#d9e2ef" stroke-width="3"/>

  <text x="397" y="92" text-anchor="middle" font-family="Pretendard, Apple SD Gothic Neo, sans-serif" font-size="34" font-weight="800" fill="#10213b">휴대폰을 여기에 놓아주세요</text>
  <text x="397" y="132" text-anchor="middle" font-family="Pretendard, Apple SD Gothic Neo, sans-serif" font-size="19" font-weight="600" fill="#63748a">QR 화면이 위로 보이도록 놓으면 자동으로 인식됩니다</text>

  <path d="M397 157v50" stroke="#2786e8" stroke-width="7" stroke-linecap="round"/>
  <path d="M379 192l18 20 18-20" fill="none" stroke="#2786e8" stroke-width="7" stroke-linecap="round" stroke-linejoin="round"/>

  <rect x="237" y="220" width="320" height="642" rx="52" fill="#f9fbfe" stroke="#2786e8" stroke-width="7" stroke-dasharray="18 13"/>
  <rect x="259" y="242" width="276" height="598" rx="36" fill="#eef5fd" stroke="#b9cee7" stroke-width="3"/>
  <rect x="346" y="257" width="102" height="16" rx="8" fill="#b9c9dc"/>

  <text x="397" y="335" text-anchor="middle" font-family="Pretendard, Apple SD Gothic Neo, sans-serif" font-size="24" font-weight="800" fill="#1c3658">QR 화면이 위로</text>
  <g transform="translate(287 386)">
    <rect width="220" height="220" rx="18" fill="#ffffff" stroke="#2786e8" stroke-width="5"/>
    <g fill="#13263f">
      <path d="M22 22h62v62H22zm14 14v34h34V36zM136 22h62v62h-62zm14 14v34h34V36zM22 136h62v62H22zm14 14v34h34v-34z"/>
      <rect x="103" y="103" width="18" height="18"/><rect x="132" y="103" width="18" height="18"/><rect x="161" y="103" width="18" height="18"/>
      <rect x="103" y="132" width="18" height="18"/><rect x="161" y="132" width="18" height="18"/><rect x="190" y="132" width="10" height="18"/>
      <rect x="103" y="161" width="18" height="18"/><rect x="132" y="161" width="18" height="18"/><rect x="161" y="161" width="39" height="18"/>
      <rect x="103" y="190" width="47" height="10"/><rect x="177" y="190" width="23" height="10"/>
    </g>
  </g>

  <g font-family="Pretendard, Apple SD Gothic Neo, sans-serif" text-anchor="middle">
    <text x="397" y="660" font-size="20" font-weight="700" fill="#45617f">QR 코드가 사각형 가운데 오도록</text>
    <text x="397" y="696" font-size="20" font-weight="700" fill="#45617f">휴대폰을 움직이지 말고 잠시 기다려 주세요</text>
  </g>

  <circle cx="397" cy="798" r="19" fill="#36b37e"/>
  <path d="M387 798l7 7 14-16" fill="none" stroke="#fff" stroke-width="5" stroke-linecap="round" stroke-linejoin="round"/>

  <rect x="98" y="918" width="598" height="118" rx="22" fill="#10213b"/>
  <g font-family="Pretendard, Apple SD Gothic Neo, sans-serif" text-anchor="middle">
    <text x="397" y="969" font-size="23" font-weight="800" fill="#ffffff">화면 밝기를 높이면 더 빠르게 인식됩니다</text>
    <text x="397" y="1006" font-size="17" font-weight="600" fill="#b9c9dc">인식이 끝나면 안내에 따라 휴대폰을 가져가 주세요</text>
  </g>
  <text x="397" y="1071" text-anchor="middle" font-family="Pretendard, Apple SD Gothic Neo, sans-serif" font-size="16" font-weight="700" fill="#7b8da3">한영외국어고등학교 · 2027학년도 2차 입학설명회</text>
</svg>
